<?xml version="1.0" encoding="UTF-8"?>
<svg width="900" height="600" viewBox="0 0 900 600" fill="none" xmlns="http://www.w3.org/2000/svg">
  <path fill="#f0f9ff" d="M0 0h900v600H0z"/>
  <circle cx="450" cy="300" r="250" fill="#e0f2fe" opacity=".4"/>
  <!-- Teacher figure -->
  <path d="M400 200c0 27.614-22.386 50-50 50s-50-22.386-50-50 22.386-50 50-50 50 22.386 50 50z" fill="#0ea5e9"/>
  <path d="M320 270v80c0 16.569 13.431 30 30 30h100c16.569 0 30-13.431 30-30v-80H320z" fill="#0ea5e9"/>
  <!-- Student figures -->
  <circle cx="550" cy="220" r="35" fill="#7c3aed"/>
  <path d="M500 270v60c0 11.046 8.954 20 20 20h60c11.046 0 20-8.954 20-20v-60H500z" fill="#7c3aed"/>
  <circle cx="650" cy="220" r="35" fill="#7c3aed" opacity=".7"/>
  <path d="M600 270v60c0 11.046 8.954 20 20 20h60c11.046 0 20-8.954 20-20v-60H600z" fill="#7c3aed" opacity=".7"/>
  <!-- Virtual screen -->
  <rect x="250" y="150" width="400" height="300" rx="20" stroke="#0ea5e9" stroke-width="4" stroke-dasharray="10 10"/>
  <!-- Connection lines -->
  <path d="M350 250c100-50 200-50 300 0M350 300c100-30 200-30 300 0M350 350c100-20 200-20 300 0" stroke="#0ea5e9" stroke-width="3" opacity=".5"/>
  <!-- Decorative elements -->
  <circle cx="250" cy="150" r="10" fill="#22c55e"/>
  <circle cx="650" cy="450" r="10" fill="#22c55e"/>
  <circle cx="450" cy="100" r="8" fill="#7c3aed"/>
  <circle cx="450" cy="500" r="8" fill="#7c3aed"/>
  <!-- Abstract shapes -->
  <path d="M200 400l30-30m-30 0l30 30" stroke="#22c55e" stroke-width="4"/>
  <path d="M700 200l30-30m-30 0l30 30" stroke="#22c55e" stroke-width="4"/>
  <path d="M650 120c10 0 10 20 20 20s10-20 20-20" stroke="#0ea5e9" stroke-width="3"/>
  <path d="M250 480c10 0 10 20 20 20s10-20 20-20" stroke="#0ea5e9" stroke-width="3"/>
</svg>
